<svg xmlns="http://www.w3.org/2000/svg" width="18" height="16" viewBox="0 0 18 16">
    <g fill="#000" fill-rule="nonzero">
        <path d="M14.705 6.072c-.062-.31-.388-.575-.707-.575H4.002c-.311 0-.647.273-.707.575l-1.61 8.04c-.046.234.074.379.316.379h13.998c.24 0 .361-.148.315-.378l-1.609-8.041zM16 15.49H2.001c-.87 0-1.467-.72-1.296-1.575l1.61-8.04c.154-.772.901-1.379 1.687-1.379h9.996c.793 0 1.532.6 1.688 1.379l1.609 8.04c.17.85-.426 1.575-1.296 1.575z"/>
        <path d="M6.5 7.194h-1V3.998A3.499 3.499 0 0 1 9 .5c1.933 0 3.5 1.566 3.5 3.498v3.196h-1V3.998C11.5 2.618 10.38 1.5 9 1.5S6.5 2.618 6.5 3.998v3.196z"/>
    </g>
</svg>
