<svg xmlns="http://www.w3.org/2000/svg" width="15" height="14" viewBox="0 0 15 14">
    <path fill="#000" fill-rule="nonzero" d="M7.896 1.146C8.608.435 9.478 0 10.5 0 13.343 0 15 2.516 15 5.092c0 2.56-1.277 4.797-3.376 6.61C10.148 12.977 8.209 14 7.5 14c-.709 0-2.647-1.023-4.123-2.298C1.277 9.89 0 7.652 0 5.092 0 2.516 1.657 0 4.5 0c1.022 0 1.892.435 2.604 1.146.15.15.282.3.396.445a5.21 5.21 0 0 1 .396-.445zM14 5.092C14 3.002 12.681 1 10.5 1c-.728 0-1.358.315-1.896.854a4.027 4.027 0 0 0-.657.87.5.5 0 0 1-.894 0 4.027 4.027 0 0 0-.656-.87C5.857 1.315 5.226 1 4.5 1 2.319 1 1 3.002 1 5.092c0 2.23 1.132 4.214 3.03 5.854C5.341 12.078 7.09 13 7.5 13c.411 0 2.16-.922 3.47-2.054C12.868 9.306 14 7.323 14 5.092z"/>
</svg>
