<?xml version="1.0" encoding="UTF-8"?><!DOCTYPE svg PUBLIC "-//W3C//DTD SVG 1.1//EN" "http://www.w3.org/Graphics/SVG/1.1/DTD/svg11.dtd"><svg xmlns="http://www.w3.org/2000/svg" xmlns:xlink="http://www.w3.org/1999/xlink"><defs>
        <path id="a" d="M.018 0h52.235v67.92H.018z"/>
    </defs><symbol id="fitting" viewBox="0 0 62 66">
    <path fill="#000" fill-rule="evenodd" d="M24.107 20.329l.333.631a7.409 7.409 0 0 0 6.566 3.975 7.41 7.41 0 0 0 6.567-3.975l.332-.631-6.899-4.66-6.899 4.66zM13.525 32.922a1.07 1.07 0 0 1 1.073 1.074v29.572H47.4V33.997a1.07 1.07 0 0 1 1.076-1.075c.341 0 .664.162.862.432l3.84 5.182 6.276-6.31-6.032-7.155a18.152 18.152 0 0 0-12.194-6.413l-.72-.07-.135.713c-.858 4.515-4.809 7.793-9.393 7.793-4.585 0-8.536-3.278-9.394-7.793l-.135-.712-.72.07A18.152 18.152 0 0 0 8.537 25.07l-6.019 7.157 6.304 6.306 3.837-5.176a1.08 1.08 0 0 1 .866-.436zm-.01 32.78c-.59 0-1.07-.482-1.07-1.074V37.235L9.801 40.81a1.075 1.075 0 0 1-.86.439c-.286 0-.554-.112-.757-.315L.31 33.037a1.09 1.09 0 0 1-.059-1.457l6.657-7.908a20.351 20.351 0 0 1 15.59-7.257c.417 0 .797.248.968.63l.386.862 6.07-4.103V9.54c0-.591.48-1.073 1.07-1.073a3.152 3.152 0 0 0 3.145-3.153 3.152 3.152 0 0 0-3.144-3.153 3.152 3.152 0 0 0-3.144 3.153c0 .592-.48 1.073-1.07 1.073-.59 0-1.07-.481-1.07-1.073 0-2.93 2.376-5.313 5.297-5.313 1.414 0 2.744.555 3.745 1.563a5.254 5.254 0 0 1 1.54 3.747 5.295 5.295 0 0 1-3.667 5.05l-.548.178v3.265l6.07 4.119.387-.863c.171-.383.551-.63.968-.63a20.312 20.312 0 0 1 15.59 7.256l6.658 7.91c.361.431.33 1.053-.076 1.445l-7.884 7.907a1.062 1.062 0 0 1-1.613-.118l-2.649-3.58v27.38c0 .591-.48 1.072-1.07 1.072H13.515z"/>
</symbol><symbol id="free" viewBox="0 0 73 62">
    <g fill="#000" fill-rule="evenodd">
        <path d="M70.714 45.09H69.42c-.715 0-1.296-.58-1.296-1.294V42.5h2.591v2.59zm-9.83 14.625a4.958 4.958 0 0 1-4.953-4.95 4.958 4.958 0 0 1 4.953-4.952 4.958 4.958 0 0 1 4.953 4.951c0 2.73-2.222 4.951-4.953 4.951zm-40.234 0a4.958 4.958 0 0 1-4.953-4.95 4.958 4.958 0 0 1 4.953-4.952 4.958 4.958 0 0 1 4.953 4.951c0 2.73-2.222 4.951-4.953 4.951zm32.843-24.374v-7.465h10.156l1.867 7.465H53.493zm0-12.34h8.61a2.517 2.517 0 0 1 2.515 2.514v.076H53.493v-2.59zM31.15 13.32c1.143-3.514 2.874-8.392 3.98-9.841a3.041 3.041 0 0 1 4.257-.573 3.038 3.038 0 0 1 .573 4.255c-.396.519-1.733 1.808-6.242 4.608-.91.566-1.797 1.097-2.568 1.551zm-6.498-1.55c-4.509-2.801-5.846-4.09-6.242-4.609a3.038 3.038 0 0 1 .573-4.255 3.022 3.022 0 0 1 1.838-.62c.916 0 1.822.41 2.419 1.193 1.106 1.45 2.837 6.327 3.98 9.841-.771-.454-1.658-.985-2.568-1.55zm43.238 23.64L66 27.851c.516-.11.904-.568.904-1.117v-1.219a4.805 4.805 0 0 0-4.8-4.799h-8.611v-2.513a2.364 2.364 0 0 0-2.362-2.362H35.12l9.729-3.89A1.142 1.142 0 1 0 44 9.83l-7.966 3.186c2.428-1.557 4.83-3.27 5.744-4.47a5.326 5.326 0 0 0-1.005-7.457 5.33 5.33 0 0 0-7.46 1.004c-1.301 1.705-3.017 6.495-4.128 9.871-1.11-3.375-2.827-8.166-4.128-9.87a5.33 5.33 0 0 0-7.46-1.005 5.326 5.326 0 0 0-1.005 7.458c.914 1.198 3.316 2.912 5.744 4.469l-7.967-3.186a1.143 1.143 0 1 0-.849 2.122l9.73 3.89H7.24a2.364 2.364 0 0 0-2.363 2.362V38.92a1.143 1.143 0 0 0 2.286 0V18.203c0-.042.034-.076.076-.076h43.892c.042 0 .076.034.076.076V38.92a1.143 1.143 0 0 0 2.286 0v-1.295h13.49a3.74 3.74 0 0 1 3.551 2.59H66.98c-.63 0-1.143.511-1.143 1.142v2.438a3.585 3.585 0 0 0 3.582 3.58h1.295v5.027h-2.989c-.981-2.834-3.676-4.875-6.84-4.875-3.165 0-5.86 2.041-6.842 4.875h-.55v-8.607a1.143 1.143 0 0 0-2.286 0v8.607H27.492c-.982-2.834-3.677-4.875-6.842-4.875-3.164 0-5.86 2.041-6.84 4.875H7.24a.076.076 0 0 1-.077-.076v-2.514h4.953a1.143 1.143 0 1 0 0-2.285H1.143a1.143 1.143 0 1 0 0 2.285h3.734v2.514a2.365 2.365 0 0 0 2.362 2.361h6.174l-.002.076c0 3.99 3.248 7.236 7.24 7.236 3.99 0 7.238-3.246 7.238-7.236l-.002-.076h25.76l-.002.076c0 3.99 3.248 7.236 7.24 7.236 3.99 0 7.238-3.246 7.238-7.236l-.002-.076h3.736c.631 0 1.143-.512 1.143-1.143V41.358c0-3.009-2.22-5.509-5.11-5.949z"/>
        <path d="M21.5 53a2.503 2.503 0 0 0-2.5 2.5c0 1.379 1.121 2.5 2.5 2.5s2.5-1.121 2.5-2.5-1.121-2.5-2.5-2.5M61.5 53a2.503 2.503 0 0 0-2.5 2.5c0 1.379 1.121 2.5 2.5 2.5s2.5-1.121 2.5-2.5-1.121-2.5-2.5-2.5M47.878 48H31.122c-.62 0-1.122.448-1.122 1s.502 1 1.122 1h16.756c.62 0 1.122-.448 1.122-1s-.502-1-1.122-1M18.851 43H4.15C3.514 43 3 43.448 3 44s.514 1 1.149 1H18.85c.635 0 1.149-.448 1.149-1s-.514-1-1.149-1M18.883 26h-4.766C13.5 26 13 26.51 13 27.14v9.72c0 .63.5 1.14 1.117 1.14s1.117-.51 1.117-1.14v-3.72h2.458c.616 0 1.117-.51 1.117-1.14 0-.63-.5-1.14-1.117-1.14h-2.458V28.28h3.649c.617 0 1.117-.51 1.117-1.14C20 26.51 19.5 26 18.883 26M25 32.076h-1.818v-3.797H25c1.003 0 1.818.851 1.818 1.898s-.815 1.899-1.818 1.899zm2.185 1.597A4.225 4.225 0 0 0 29 30.177C29 27.874 27.206 26 25 26h-2.909C21.49 26 21 26.51 21 27.14v9.72c0 .63.488 1.14 1.091 1.14s1.091-.51 1.091-1.14v-2.506h1.816L27 37.492c.21.33.556.508.909.508.208 0 .418-.062.604-.192a1.17 1.17 0 0 0 .302-1.58l-1.63-2.555zM36.883 35.722h-3.649v-2.586l.075.003h2.382c.617 0 1.117-.51 1.117-1.139 0-.63-.5-1.14-1.117-1.14H33.31c-.026 0-.05.003-.075.005v-2.586h3.649c.617 0 1.117-.51 1.117-1.14C38 26.51 37.5 26 36.883 26h-4.766C31.5 26 31 26.51 31 27.14v9.72c0 .63.5 1.14 1.117 1.14h4.766C37.5 38 38 37.49 38 36.86c0-.629-.5-1.138-1.117-1.138M44.883 35.722h-3.649v-2.583H42.5c.617 0 1.117-.51 1.117-1.139 0-.63-.5-1.14-1.117-1.14h-1.266V28.28h3.649c.617 0 1.117-.51 1.117-1.14C46 26.51 45.5 26 44.883 26h-4.766C39.5 26 39 26.51 39 27.14v9.72c0 .63.5 1.14 1.117 1.14h4.766C45.5 38 46 37.49 46 36.86c0-.629-.5-1.138-1.117-1.138"/>
    </g>
</symbol><symbol id="pay" viewBox="0 0 53 68">
    
    <g fill="none" fill-rule="evenodd">
        <path fill="#000" d="M26.883 12h-4.766C21.5 12 21 12.448 21 13s.5 1 1.117 1h4.766C27.5 14 28 13.552 28 13s-.5-1-1.117-1M17.928 12h-6.857C10.48 12 10 12.448 10 13s.48 1 1.071 1h6.857C18.52 14 19 13.552 19 13s-.48-1-1.072-1M27.79 8h-2.58C24.542 8 24 8.448 24 9s.542 1 1.21 1h2.58c.668 0 1.21-.448 1.21-1s-.542-1-1.21-1M20.79 8h-2.58C17.542 8 17 8.448 17 9s.542 1 1.21 1h2.58c.668 0 1.21-.448 1.21-1s-.542-1-1.21-1M13.79 8h-2.58C10.542 8 10 8.448 10 9s.542 1 1.21 1h2.58c.668 0 1.21-.448 1.21-1s-.542-1-1.21-1"/>
        <g>
            <mask id="b" fill="#fff">
                <use xlink:href="#a"/>
            </mask>
            <path fill="#000" d="M50.118 61.184a.07.07 0 0 1-.07.071h-2.35V39.631c0-.587-.477-1.063-1.067-1.063s-1.067.476-1.067 1.063v21.624h-2.42V31.62h2.42v3.474c0 .587.478 1.063 1.067 1.063.59 0 1.068-.476 1.068-1.063V31.62h2.348a.07.07 0 0 1 .071.071v29.493zm-11.529.071h2.42V31.62h-2.42v29.635zm-2.134 1.064a3.485 3.485 0 0 1-3.488 3.473H5.64a3.485 3.485 0 0 1-3.488-3.473V14.676a3.485 3.485 0 0 1 3.488-3.474h.07v5.813h-.07c-.59 0-1.068.476-1.068 1.064 0 .587.478 1.063 1.068 1.063h27.327c.59 0 1.068-.476 1.068-1.063 0-.588-.478-1.064-1.068-1.064h-.07v-5.813h.07a3.485 3.485 0 0 1 3.488 3.474v47.643zM7.845 2.582l1.7.615c.235.086.494.086.73 0l2.766-1.002 2.766 1.002c.236.086.494.086.73 0l2.766-1.002 2.767 1.002c.235.086.494.086.73 0l2.766-1.002 2.766 1.002c.236.086.494.086.73 0l1.699-.615v14.433H7.846V2.582zm42.202 26.911H38.59V14.676c0-3.089-2.522-5.601-5.622-5.601h-.07V1.064a1.07 1.07 0 0 0-1.432-1l-2.768 1.002L25.931.064a1.072 1.072 0 0 0-.73 0l-2.766 1.002L19.668.064a1.072 1.072 0 0 0-.73 0l-2.766 1.002L13.406.064a1.072 1.072 0 0 0-.73 0L9.91 1.066 7.143.064a1.071 1.071 0 0 0-.977.128c-.285.2-.455.525-.455.871v8.012H5.64c-3.1 0-5.622 2.512-5.622 5.6v47.643c0 3.089 2.522 5.601 5.622 5.601h27.327a5.625 5.625 0 0 0 5.52-4.537h11.56a2.204 2.204 0 0 0 2.206-2.198V31.69c0-1.212-.99-2.198-2.206-2.198z" mask="url(#b)"/>
        </g>
        <path fill="#000" d="M19.01 42.766h-1.02c-.596 0-1.081-.568-1.081-1.266 0-.698.485-1.266 1.082-1.266h1.018c.597 0 1.082.568 1.082 1.266 0 .698-.485 1.266-1.082 1.266m0-4.766h-1.018C16.34 38 15 39.57 15 41.5s1.342 3.5 2.99 3.5h1.02c1.648 0 2.99-1.57 2.99-3.5S20.658 38 19.01 38M19.01 52.766h-1.02c-.596 0-1.081-.568-1.081-1.266 0-.698.485-1.266 1.082-1.266h1.018c.597 0 1.082.568 1.082 1.266 0 .698-.485 1.266-1.082 1.266m0-4.766h-1.018C16.34 48 15 49.57 15 51.5s1.342 3.5 2.99 3.5h1.02c1.648 0 2.99-1.57 2.99-3.5S20.658 48 19.01 48M19.01 61.766h-1.02c-.596 0-1.081-.568-1.081-1.266 0-.698.485-1.266 1.082-1.266h1.018c.597 0 1.082.568 1.082 1.266 0 .698-.485 1.266-1.082 1.266m0-4.766h-1.018C16.34 57 15 58.57 15 60.5s1.342 3.5 2.99 3.5h1.02c1.648 0 2.99-1.57 2.99-3.5S20.658 57 19.01 57M29.01 42.766h-1.02c-.596 0-1.081-.568-1.081-1.266 0-.698.485-1.266 1.082-1.266h1.018c.597 0 1.082.568 1.082 1.266 0 .698-.485 1.266-1.082 1.266m0-4.766h-1.018C26.34 38 25 39.57 25 41.5s1.342 3.5 2.99 3.5h1.02c1.648 0 2.99-1.57 2.99-3.5S30.658 38 29.01 38M29.01 52.766h-1.02c-.596 0-1.081-.568-1.081-1.266 0-.698.485-1.266 1.082-1.266h1.018c.597 0 1.082.568 1.082 1.266 0 .698-.485 1.266-1.082 1.266m0-4.766h-1.018C26.34 48 25 49.57 25 51.5s1.342 3.5 2.99 3.5h1.02c1.648 0 2.99-1.57 2.99-3.5S30.658 48 29.01 48M29.01 61.766h-1.02c-.596 0-1.081-.568-1.081-1.266 0-.698.485-1.266 1.082-1.266h1.018c.597 0 1.082.568 1.082 1.266 0 .698-.485 1.266-1.082 1.266m0-4.766h-1.018C26.34 57 25 58.57 25 60.5s1.342 3.5 2.99 3.5h1.02c1.648 0 2.99-1.57 2.99-3.5S30.658 57 29.01 57M9.01 42.766H7.99c-.596 0-1.081-.568-1.081-1.266 0-.698.485-1.266 1.082-1.266h1.018c.597 0 1.082.568 1.082 1.266 0 .698-.485 1.266-1.082 1.266m0-4.766H7.991C6.34 38 5 39.57 5 41.5S6.342 45 7.99 45h1.02c1.648 0 2.99-1.57 2.99-3.5S10.658 38 9.01 38M9.01 52.766H7.99c-.596 0-1.081-.568-1.081-1.266 0-.698.485-1.266 1.082-1.266h1.018c.597 0 1.082.568 1.082 1.266 0 .698-.485 1.266-1.082 1.266m0-4.766H7.991C6.34 48 5 49.57 5 51.5S6.342 55 7.99 55h1.02c1.648 0 2.99-1.57 2.99-3.5S10.658 48 9.01 48M9.01 61.766H7.99c-.596 0-1.081-.568-1.081-1.266 0-.698.485-1.266 1.082-1.266h1.018c.597 0 1.082.568 1.082 1.266 0 .698-.485 1.266-1.082 1.266m0-4.766H7.991C6.34 57 5 58.57 5 60.5S6.342 64 7.99 64h1.02c1.648 0 2.99-1.57 2.99-3.5S10.658 57 9.01 57M31.899 33.743c0 .04-.032.072-.07.072H7.172a.071.071 0 0 1-.07-.072V23.257c0-.04.031-.072.07-.072h24.657c.038 0 .07.032.07.072v10.486zM31.829 21H7.172C5.974 21 5 22.013 5 23.257v10.486C5 34.987 5.974 36 7.172 36h24.657C33.026 36 34 34.987 34 33.743V23.257C34 22.013 33.026 21 31.829 21z"/>
    </g>
</symbol><symbol id="time" viewBox="0 0 60 60">
    <g fill="#000" fill-rule="evenodd">
        <path d="M8.367 34.925c-.663 0-1.203-.602-1.203-1.343 0-.74.54-1.343 1.203-1.343h7.446c.663 0 1.202.602 1.202 1.343 0 .74-.54 1.343-1.202 1.343H8.367zM8.367 46.567c-.663 0-1.203-.602-1.203-1.343 0-.74.54-1.343 1.203-1.343h7.446c.663 0 1.202.602 1.202 1.343 0 .74-.54 1.343-1.202 1.343H8.367zM45.083 45.672c-.663 0-1.202-.54-1.202-1.203v-7.446c0-.663.539-1.202 1.202-1.202.663 0 1.202.54 1.202 1.202v6.244h6.244c.663 0 1.202.54 1.202 1.202 0 .663-.539 1.203-1.202 1.203h-7.446z"/>
        <path d="M11.93 2.319c-1.34 0-2.43 1.09-2.43 2.43v7.18c0 1.341 1.09 2.431 2.43 2.431s2.43-1.09 2.43-2.43V4.75c0-1.34-1.09-2.431-2.43-2.431zm18.19 0c-1.34 0-2.43 1.09-2.43 2.43v7.18c0 1.341 1.09 2.431 2.43 2.431s2.43-1.09 2.43-2.43V4.75c0-1.34-1.09-2.431-2.43-2.431zm17.95 0c-1.34 0-2.43 1.09-2.43 2.43v7.18c0 1.341 1.09 2.431 2.43 2.431s2.43-1.09 2.43-2.43V4.75c0-1.34-1.09-2.431-2.43-2.431zM4.75 9.499c-1.34 0-2.431 1.09-2.431 2.43v9.851h55.362v-9.85c0-1.34-1.09-2.43-2.43-2.43H52.82v2.43c0 2.619-2.13 4.75-4.75 4.75a4.755 4.755 0 0 1-4.75-4.75V9.5h-8.45v2.43c0 2.619-2.131 4.75-4.75 4.75a4.755 4.755 0 0 1-4.75-4.75V9.5h-8.69v2.43c0 2.619-2.131 4.75-4.75 4.75a4.755 4.755 0 0 1-4.75-4.75V9.5H4.75zM2.319 51.66c0 1.34 1.09 2.43 2.43 2.43h27.496l-.663-.989a15.506 15.506 0 0 1-2.525-6.896l-.063-.565H26.53a1.16 1.16 0 0 1 0-2.319h2.464l.063-.566a15.53 15.53 0 0 1 2.525-6.908l.663-.99H26.53c-.64 0-1.16-.514-1.16-1.147 0-.64.52-1.16 1.16-1.16h7.18c.116 0 .231.018.342.052l.327.1.264-.216a15.534 15.534 0 0 1 9.837-3.526c4.702 0 9.102 2.106 12.071 5.778l1.13 1.397V24.099H2.32V51.66zM44.48 31.28c-7.279 0-13.2 5.921-13.2 13.2 0 7.28 5.921 13.201 13.2 13.201 7.28 0 13.201-5.922 13.201-13.2 0-7.28-5.922-13.202-13.2-13.202zm0 28.72a15.544 15.544 0 0 1-9.742-3.449l-.175-.141H4.75A4.755 4.755 0 0 1 0 51.66V11.93c0-2.62 2.13-4.75 4.75-4.75h2.43V4.75C7.18 2.13 9.31 0 11.93 0c2.619 0 4.75 2.13 4.75 4.75v2.43h8.69V4.75C25.37 2.13 27.5 0 30.12 0c2.619 0 4.75 2.13 4.75 4.75v2.43h8.45V4.75c0-2.62 2.131-4.75 4.75-4.75 2.62 0 4.75 2.13 4.75 4.75v2.43h2.43c2.62 0 4.75 2.13 4.75 4.75v32.55C60 53.038 53.038 60 44.48 60z"/>
    </g>
</symbol></svg>