<?xml version="1.0" encoding="UTF-8"?><!DOCTYPE svg PUBLIC "-//W3C//DTD SVG 1.1//EN" "http://www.w3.org/Graphics/SVG/1.1/DTD/svg11.dtd"><svg xmlns="http://www.w3.org/2000/svg" xmlns:xlink="http://www.w3.org/1999/xlink"><symbol id="busket" viewBox="0 0 18 16">
    <g fill="#000" fill-rule="nonzero">
        <path d="M14.705 6.072c-.062-.31-.388-.575-.707-.575H4.002c-.311 0-.647.273-.707.575l-1.61 8.04c-.046.234.074.379.316.379h13.998c.24 0 .361-.148.315-.378l-1.609-8.041zM16 15.49H2.001c-.87 0-1.467-.72-1.296-1.575l1.61-8.04c.154-.772.901-1.379 1.687-1.379h9.996c.793 0 1.532.6 1.688 1.379l1.609 8.04c.17.85-.426 1.575-1.296 1.575z"/>
        <path d="M6.5 7.194h-1V3.998A3.499 3.499 0 0 1 9 .5c1.933 0 3.5 1.566 3.5 3.498v3.196h-1V3.998C11.5 2.618 10.38 1.5 9 1.5S6.5 2.618 6.5 3.998v3.196z"/>
    </g>
</symbol><symbol id="check" viewBox="0 0 16 16">
    <g fill="none" fill-rule="evenodd" stroke="#000" stroke-linecap="round" stroke-linejoin="round">
        <path d="M15 7.787a6.998 6.998 0 0 1-7 6.995c-3.866 0-7-3.132-7-6.995A6.998 6.998 0 0 1 8 .79c3.866 0 7 3.132 7 6.996z"/>
        <path d="M11 6.787L7 9.786l-2-2"/>
    </g>
</symbol><symbol id="like" viewBox="0 0 15 14">
    <path fill="#000" fill-rule="nonzero" d="M7.896 1.146C8.608.435 9.478 0 10.5 0 13.343 0 15 2.516 15 5.092c0 2.56-1.277 4.797-3.376 6.61C10.148 12.977 8.209 14 7.5 14c-.709 0-2.647-1.023-4.123-2.298C1.277 9.89 0 7.652 0 5.092 0 2.516 1.657 0 4.5 0c1.022 0 1.892.435 2.604 1.146.15.15.282.3.396.445a5.21 5.21 0 0 1 .396-.445zM14 5.092C14 3.002 12.681 1 10.5 1c-.728 0-1.358.315-1.896.854a4.027 4.027 0 0 0-.657.87.5.5 0 0 1-.894 0 4.027 4.027 0 0 0-.656-.87C5.857 1.315 5.226 1 4.5 1 2.319 1 1 3.002 1 5.092c0 2.23 1.132 4.214 3.03 5.854C5.341 12.078 7.09 13 7.5 13c.411 0 2.16-.922 3.47-2.054C12.868 9.306 14 7.323 14 5.092z"/>
</symbol><symbol id="login" viewBox="0 0 16 18">
    <g fill="#000" fill-rule="nonzero">
        <path d="M10.405 4.048a2.547 2.547 0 1 0-5.095 0c0 1.863.531 3.146 1.414 3.725.33.228.717.346 1.133.346A1.98 1.98 0 0 0 9 7.767c.873-.573 1.405-1.856 1.405-3.72zm1 0c0 2.17-.664 3.772-1.846 4.548-.5.345-1.085.523-1.702.523a2.958 2.958 0 0 1-1.691-.516C4.973 7.82 4.31 6.218 4.31 4.048a3.547 3.547 0 1 1 7.095 0z"/>
        <path d="M8.875 8.714l.982-.19c.165.86.554 1.424 1.206 1.64 2.987.995 4.151 1.994 4.151 4.284 0 1.364-1.462 2.096-3.846 2.493-.77.128-1.591.21-2.412.256a25.16 25.16 0 0 1-1.099.036c-.057 0-.162 0-.306-.004a25.16 25.16 0 0 1-.793-.032 22.387 22.387 0 0 1-2.412-.256C1.962 16.544.5 15.812.5 14.448c0-2.29 1.165-3.289 4.153-4.285.65-.215 1.039-.78 1.205-1.639l.982.19c-.228 1.181-.829 2.053-1.872 2.398-2.624.875-3.468 1.598-3.468 3.336 0 .635 1.109 1.19 3.01 1.506.73.122 1.517.2 2.303.244a24.164 24.164 0 0 0 1.044.035c.05 0 .146 0 .283-.004.23-.005.485-.015.76-.03a21.416 21.416 0 0 0 2.304-.245c1.901-.317 3.01-.871 3.01-1.506 0-1.738-.844-2.461-3.466-3.335-1.045-.346-1.645-1.218-1.873-2.4z"/>
    </g>
</symbol><symbol id="plus" viewBox="0 0 17 17">
    <g fill="#000" fill-rule="evenodd">
        <path d="M8 0h1v17H8z"/>
        <path d="M17 8v1H0V8z"/>
    </g>
</symbol><symbol id="search" viewBox="0 0 16 16">
    <g fill="#000" fill-rule="nonzero">
        <path d="M11.5 6.496a4.998 4.998 0 0 0-5-4.996c-2.761 0-5 2.237-5 4.996a4.998 4.998 0 0 0 5 4.997c2.761 0 5-2.237 5-4.997zm1 0a5.998 5.998 0 0 1-6 5.997c-3.313 0-6-2.685-6-5.997A5.998 5.998 0 0 1 6.5.5c3.313 0 6 2.685 6 5.996z"/>
        <path d="M15.353 14.637a.5.5 0 1 1-.706.708l-4-3.998a.5.5 0 1 1 .706-.707l4 3.997z"/>
    </g>
</symbol></svg>