<?xml version="1.0" encoding="UTF-8"?><!DOCTYPE svg PUBLIC "-//W3C//DTD SVG 1.1//EN" "http://www.w3.org/Graphics/SVG/1.1/DTD/svg11.dtd"><svg xmlns="http://www.w3.org/2000/svg" xmlns:xlink="http://www.w3.org/1999/xlink"><defs>
        <path id="a" d="M.148.024h15.767v8.447H.148z"/>
    </defs><symbol id="mastercard" viewBox="0 0 28 18">
    <g fill="#000" fill-rule="evenodd">
        <circle cx="9" cy="9" r="9"/>
        <path fill-rule="nonzero" d="M19 16a7 7 0 1 0 0-14 7 7 0 0 0 0 14zm0 2a9 9 0 1 1 0-18 9 9 0 0 1 0 18z"/>
    </g>
</symbol><symbol id="mir" viewBox="0 0 57 16">
    
    <g fill="none" fill-rule="evenodd">
        <path fill="#000" d="M31.627 1.69l-3.584 7.764h-.364V0h-5.09v16h4.32c1.134 0 2.165-.66 2.641-1.69l3.584-7.764h.364V16h5.09V0h-4.32c-1.135 0-2.166.66-2.641 1.69M12.406 2.103l-2.108 7.352h-.36L7.83 2.103A2.895 2.895 0 0 0 5.052 0H0v16h5.058V6.545h.362L8.31 16h3.615l2.89-9.455h.361V16h5.06V0h-5.053c-1.287 0-2.42.858-2.777 2.103"/>
        <g transform="translate(40.47 7.059)">
            <mask id="b" fill="#fff">
                <use xlink:href="#a"/>
            </mask>
            <path fill="#000" d="M.148.024v8.447h5.108V3.544h5.494c2.387 0 4.411-1.47 5.165-3.52H.148z" mask="url(#b)"/>
        </g>
        <path fill="#000" d="M50.63 0h-11.1c.674 3.748 3.882 6.588 7.743 6.588h8.62c.07-.355.107-.722.107-1.098C56 2.458 53.595 0 50.63 0"/>
    </g>
</symbol><symbol id="visa" viewBox="0 0 48 15">
    <g fill="#000" fill-rule="nonzero">
        <path d="M19.308 0L17 14h3.69L23 0zM13.797.003L9.91 9.563 9.496 8.12C8.73 6.38 6.554 3.883 4 2.308L7.553 14l4.199-.007L18 0l-4.203.003z"/>
        <path d="M7.701 1.087C7.477.272 6.828.03 6.022 0H.05L0 .267C4.648 1.335 7.724 3.907 9 7L7.701 1.087zM31.105 3.036a7.445 7.445 0 0 1 2.993.556l.361.168L35 .61C34.208.316 32.967 0 31.418 0c-3.952 0-6.737 1.971-6.759 4.796-.026 2.087 1.984 3.253 3.502 3.948 1.558.713 2.081 1.167 2.074 1.803-.013.973-1.243 1.42-2.392 1.42-1.601 0-2.452-.22-3.765-.762l-.515-.232L23 14.226c.936.406 2.663.756 4.456.774 4.203 0 6.935-1.948 6.964-4.966.017-1.651-1.05-2.911-3.36-3.945-1.4-.675-2.255-1.123-2.247-1.803 0-.605.726-1.25 2.292-1.25zM44.845 0h-3.013c-.935 0-1.631.25-2.042 1.163L34 14h4.095s.668-1.726.819-2.104l4.993.006c.117.489.476 2.098.476 2.098H48L44.845 0zm-4.809 9.03c.321-.805 1.554-3.915 1.554-3.915-.021.038.318-.81.52-1.338l.262 1.208.904 4.045h-3.24z"/>
    </g>
</symbol></svg>