<svg xmlns="http://www.w3.org/2000/svg" width="62" height="66" viewBox="0 0 62 66">
    <path fill="#000" fill-rule="evenodd" d="M24.107 20.329l.333.631a7.409 7.409 0 0 0 6.566 3.975 7.41 7.41 0 0 0 6.567-3.975l.332-.631-6.899-4.66-6.899 4.66zM13.525 32.922a1.07 1.07 0 0 1 1.073 1.074v29.572H47.4V33.997a1.07 1.07 0 0 1 1.076-1.075c.341 0 .664.162.862.432l3.84 5.182 6.276-6.31-6.032-7.155a18.152 18.152 0 0 0-12.194-6.413l-.72-.07-.135.713c-.858 4.515-4.809 7.793-9.393 7.793-4.585 0-8.536-3.278-9.394-7.793l-.135-.712-.72.07A18.152 18.152 0 0 0 8.537 25.07l-6.019 7.157 6.304 6.306 3.837-5.176a1.08 1.08 0 0 1 .866-.436zm-.01 32.78c-.59 0-1.07-.482-1.07-1.074V37.235L9.801 40.81a1.075 1.075 0 0 1-.86.439c-.286 0-.554-.112-.757-.315L.31 33.037a1.09 1.09 0 0 1-.059-1.457l6.657-7.908a20.351 20.351 0 0 1 15.59-7.257c.417 0 .797.248.968.63l.386.862 6.07-4.103V9.54c0-.591.48-1.073 1.07-1.073a3.152 3.152 0 0 0 3.145-3.153 3.152 3.152 0 0 0-3.144-3.153 3.152 3.152 0 0 0-3.144 3.153c0 .592-.48 1.073-1.07 1.073-.59 0-1.07-.481-1.07-1.073 0-2.93 2.376-5.313 5.297-5.313 1.414 0 2.744.555 3.745 1.563a5.254 5.254 0 0 1 1.54 3.747 5.295 5.295 0 0 1-3.667 5.05l-.548.178v3.265l6.07 4.119.387-.863c.171-.383.551-.63.968-.63a20.312 20.312 0 0 1 15.59 7.256l6.658 7.91c.361.431.33 1.053-.076 1.445l-7.884 7.907a1.062 1.062 0 0 1-1.613-.118l-2.649-3.58v27.38c0 .591-.48 1.072-1.07 1.072H13.515z"/>
</svg>
