<svg xmlns="http://www.w3.org/2000/svg" width="73" height="62" viewBox="0 0 73 62">
    <g fill="#000" fill-rule="evenodd">
        <path d="M70.714 45.09H69.42c-.715 0-1.296-.58-1.296-1.294V42.5h2.591v2.59zm-9.83 14.625a4.958 4.958 0 0 1-4.953-4.95 4.958 4.958 0 0 1 4.953-4.952 4.958 4.958 0 0 1 4.953 4.951c0 2.73-2.222 4.951-4.953 4.951zm-40.234 0a4.958 4.958 0 0 1-4.953-4.95 4.958 4.958 0 0 1 4.953-4.952 4.958 4.958 0 0 1 4.953 4.951c0 2.73-2.222 4.951-4.953 4.951zm32.843-24.374v-7.465h10.156l1.867 7.465H53.493zm0-12.34h8.61a2.517 2.517 0 0 1 2.515 2.514v.076H53.493v-2.59zM31.15 13.32c1.143-3.514 2.874-8.392 3.98-9.841a3.041 3.041 0 0 1 4.257-.573 3.038 3.038 0 0 1 .573 4.255c-.396.519-1.733 1.808-6.242 4.608-.91.566-1.797 1.097-2.568 1.551zm-6.498-1.55c-4.509-2.801-5.846-4.09-6.242-4.609a3.038 3.038 0 0 1 .573-4.255 3.022 3.022 0 0 1 1.838-.62c.916 0 1.822.41 2.419 1.193 1.106 1.45 2.837 6.327 3.98 9.841-.771-.454-1.658-.985-2.568-1.55zm43.238 23.64L66 27.851c.516-.11.904-.568.904-1.117v-1.219a4.805 4.805 0 0 0-4.8-4.799h-8.611v-2.513a2.364 2.364 0 0 0-2.362-2.362H35.12l9.729-3.89A1.142 1.142 0 1 0 44 9.83l-7.966 3.186c2.428-1.557 4.83-3.27 5.744-4.47a5.326 5.326 0 0 0-1.005-7.457 5.33 5.33 0 0 0-7.46 1.004c-1.301 1.705-3.017 6.495-4.128 9.871-1.11-3.375-2.827-8.166-4.128-9.87a5.33 5.33 0 0 0-7.46-1.005 5.326 5.326 0 0 0-1.005 7.458c.914 1.198 3.316 2.912 5.744 4.469l-7.967-3.186a1.143 1.143 0 1 0-.849 2.122l9.73 3.89H7.24a2.364 2.364 0 0 0-2.363 2.362V38.92a1.143 1.143 0 0 0 2.286 0V18.203c0-.042.034-.076.076-.076h43.892c.042 0 .076.034.076.076V38.92a1.143 1.143 0 0 0 2.286 0v-1.295h13.49a3.74 3.74 0 0 1 3.551 2.59H66.98c-.63 0-1.143.511-1.143 1.142v2.438a3.585 3.585 0 0 0 3.582 3.58h1.295v5.027h-2.989c-.981-2.834-3.676-4.875-6.84-4.875-3.165 0-5.86 2.041-6.842 4.875h-.55v-8.607a1.143 1.143 0 0 0-2.286 0v8.607H27.492c-.982-2.834-3.677-4.875-6.842-4.875-3.164 0-5.86 2.041-6.84 4.875H7.24a.076.076 0 0 1-.077-.076v-2.514h4.953a1.143 1.143 0 1 0 0-2.285H1.143a1.143 1.143 0 1 0 0 2.285h3.734v2.514a2.365 2.365 0 0 0 2.362 2.361h6.174l-.002.076c0 3.99 3.248 7.236 7.24 7.236 3.99 0 7.238-3.246 7.238-7.236l-.002-.076h25.76l-.002.076c0 3.99 3.248 7.236 7.24 7.236 3.99 0 7.238-3.246 7.238-7.236l-.002-.076h3.736c.631 0 1.143-.512 1.143-1.143V41.358c0-3.009-2.22-5.509-5.11-5.949z"/>
        <path d="M21.5 53a2.503 2.503 0 0 0-2.5 2.5c0 1.379 1.121 2.5 2.5 2.5s2.5-1.121 2.5-2.5-1.121-2.5-2.5-2.5M61.5 53a2.503 2.503 0 0 0-2.5 2.5c0 1.379 1.121 2.5 2.5 2.5s2.5-1.121 2.5-2.5-1.121-2.5-2.5-2.5M47.878 48H31.122c-.62 0-1.122.448-1.122 1s.502 1 1.122 1h16.756c.62 0 1.122-.448 1.122-1s-.502-1-1.122-1M18.851 43H4.15C3.514 43 3 43.448 3 44s.514 1 1.149 1H18.85c.635 0 1.149-.448 1.149-1s-.514-1-1.149-1M18.883 26h-4.766C13.5 26 13 26.51 13 27.14v9.72c0 .63.5 1.14 1.117 1.14s1.117-.51 1.117-1.14v-3.72h2.458c.616 0 1.117-.51 1.117-1.14 0-.63-.5-1.14-1.117-1.14h-2.458V28.28h3.649c.617 0 1.117-.51 1.117-1.14C20 26.51 19.5 26 18.883 26M25 32.076h-1.818v-3.797H25c1.003 0 1.818.851 1.818 1.898s-.815 1.899-1.818 1.899zm2.185 1.597A4.225 4.225 0 0 0 29 30.177C29 27.874 27.206 26 25 26h-2.909C21.49 26 21 26.51 21 27.14v9.72c0 .63.488 1.14 1.091 1.14s1.091-.51 1.091-1.14v-2.506h1.816L27 37.492c.21.33.556.508.909.508.208 0 .418-.062.604-.192a1.17 1.17 0 0 0 .302-1.58l-1.63-2.555zM36.883 35.722h-3.649v-2.586l.075.003h2.382c.617 0 1.117-.51 1.117-1.139 0-.63-.5-1.14-1.117-1.14H33.31c-.026 0-.05.003-.075.005v-2.586h3.649c.617 0 1.117-.51 1.117-1.14C38 26.51 37.5 26 36.883 26h-4.766C31.5 26 31 26.51 31 27.14v9.72c0 .63.5 1.14 1.117 1.14h4.766C37.5 38 38 37.49 38 36.86c0-.629-.5-1.138-1.117-1.138M44.883 35.722h-3.649v-2.583H42.5c.617 0 1.117-.51 1.117-1.139 0-.63-.5-1.14-1.117-1.14h-1.266V28.28h3.649c.617 0 1.117-.51 1.117-1.14C46 26.51 45.5 26 44.883 26h-4.766C39.5 26 39 26.51 39 27.14v9.72c0 .63.5 1.14 1.117 1.14h4.766C45.5 38 46 37.49 46 36.86c0-.629-.5-1.138-1.117-1.138"/>
    </g>
</svg>
