<svg xmlns="http://www.w3.org/2000/svg" width="16" height="18" viewBox="0 0 16 18">
    <g fill="#000" fill-rule="nonzero">
        <path d="M10.405 4.048a2.547 2.547 0 1 0-5.095 0c0 1.863.531 3.146 1.414 3.725.33.228.717.346 1.133.346A1.98 1.98 0 0 0 9 7.767c.873-.573 1.405-1.856 1.405-3.72zm1 0c0 2.17-.664 3.772-1.846 4.548-.5.345-1.085.523-1.702.523a2.958 2.958 0 0 1-1.691-.516C4.973 7.82 4.31 6.218 4.31 4.048a3.547 3.547 0 1 1 7.095 0z"/>
        <path d="M8.875 8.714l.982-.19c.165.86.554 1.424 1.206 1.64 2.987.995 4.151 1.994 4.151 4.284 0 1.364-1.462 2.096-3.846 2.493-.77.128-1.591.21-2.412.256a25.16 25.16 0 0 1-1.099.036c-.057 0-.162 0-.306-.004a25.16 25.16 0 0 1-.793-.032 22.387 22.387 0 0 1-2.412-.256C1.962 16.544.5 15.812.5 14.448c0-2.29 1.165-3.289 4.153-4.285.65-.215 1.039-.78 1.205-1.639l.982.19c-.228 1.181-.829 2.053-1.872 2.398-2.624.875-3.468 1.598-3.468 3.336 0 .635 1.109 1.19 3.01 1.506.73.122 1.517.2 2.303.244a24.164 24.164 0 0 0 1.044.035c.05 0 .146 0 .283-.004.23-.005.485-.015.76-.03a21.416 21.416 0 0 0 2.304-.245c1.901-.317 3.01-.871 3.01-1.506 0-1.738-.844-2.461-3.466-3.335-1.045-.346-1.645-1.218-1.873-2.4z"/>
    </g>
</svg>
