<svg xmlns="http://www.w3.org/2000/svg" width="121" height="29" viewBox="0 0 121 29">
    <path fill="#000" fill-rule="nonzero" d="M0 27.88V.72h4.32v12.36L17.44.72h5.68l-12 11 12 16.16h-5.44L7.96 14.72l-3.64 3.44v9.72H0zm23.14 0V.72L27.46 0v27.88h-4.32zm15.54.6c-6.28 0-11.32-4.88-11.32-10.92S32.4 6.6 38.68 6.6 50 11.52 50 17.56c0 6.04-5.04 10.92-11.32 10.92zm0-3.88c4.08 0 7.16-3.16 7.16-7.04 0-3.92-3.08-7.08-7.16-7.08s-7.16 3.16-7.16 7.08c0 3.88 3.08 7.04 7.16 7.04zm14.98 3.28V10.16H45.7L57.98.04v6.6h7.08v3.52h-7.08v17.72h-4.32zM74.64 6.56c4.64 0 8.32 2.92 8.32 8.6v12.72h-4.32V15.6c0-3.32-1.8-5.2-4.64-5.2-3 0-5.8 1.96-5.8 5.84v11.64h-4.32V.72L68.2 0v9.76s1.4-3.2 6.44-3.2zM93.9 28.48c-7.28 0-11.44-5-11.44-10.96 0-6.2 4.76-10.92 11.16-10.92 6 0 9.48 4.96 9.48 9.96v2H86.58c.48 3.2 2.72 6.08 7.4 6.08 5.08 0 8.16-2.16 8.2-2.16v3.88s-2.24 2.12-8.28 2.12zM86.78 15.2h12c-.16-1.6-1.2-5.08-5.72-5.08s-6.04 3.48-6.28 5.08zm15.02 12.68v-2.96l13.08-14H102.6V7.16h17.84v3.36l-12.72 13.6h13.12v3.76H101.8z"/>
</svg>
