<svg xmlns="http://www.w3.org/2000/svg" xmlns:xlink="http://www.w3.org/1999/xlink" width="53" height="68" viewBox="0 0 53 68">
    <defs>
        <path id="a" d="M.018 0h52.235v67.92H.018z"/>
    </defs>
    <g fill="none" fill-rule="evenodd">
        <path fill="#000" d="M26.883 12h-4.766C21.5 12 21 12.448 21 13s.5 1 1.117 1h4.766C27.5 14 28 13.552 28 13s-.5-1-1.117-1M17.928 12h-6.857C10.48 12 10 12.448 10 13s.48 1 1.071 1h6.857C18.52 14 19 13.552 19 13s-.48-1-1.072-1M27.79 8h-2.58C24.542 8 24 8.448 24 9s.542 1 1.21 1h2.58c.668 0 1.21-.448 1.21-1s-.542-1-1.21-1M20.79 8h-2.58C17.542 8 17 8.448 17 9s.542 1 1.21 1h2.58c.668 0 1.21-.448 1.21-1s-.542-1-1.21-1M13.79 8h-2.58C10.542 8 10 8.448 10 9s.542 1 1.21 1h2.58c.668 0 1.21-.448 1.21-1s-.542-1-1.21-1"/>
        <g>
            <mask id="b" fill="#fff">
                <use xlink:href="#a"/>
            </mask>
            <path fill="#000" d="M50.118 61.184a.07.07 0 0 1-.07.071h-2.35V39.631c0-.587-.477-1.063-1.067-1.063s-1.067.476-1.067 1.063v21.624h-2.42V31.62h2.42v3.474c0 .587.478 1.063 1.067 1.063.59 0 1.068-.476 1.068-1.063V31.62h2.348a.07.07 0 0 1 .071.071v29.493zm-11.529.071h2.42V31.62h-2.42v29.635zm-2.134 1.064a3.485 3.485 0 0 1-3.488 3.473H5.64a3.485 3.485 0 0 1-3.488-3.473V14.676a3.485 3.485 0 0 1 3.488-3.474h.07v5.813h-.07c-.59 0-1.068.476-1.068 1.064 0 .587.478 1.063 1.068 1.063h27.327c.59 0 1.068-.476 1.068-1.063 0-.588-.478-1.064-1.068-1.064h-.07v-5.813h.07a3.485 3.485 0 0 1 3.488 3.474v47.643zM7.845 2.582l1.7.615c.235.086.494.086.73 0l2.766-1.002 2.766 1.002c.236.086.494.086.73 0l2.766-1.002 2.767 1.002c.235.086.494.086.73 0l2.766-1.002 2.766 1.002c.236.086.494.086.73 0l1.699-.615v14.433H7.846V2.582zm42.202 26.911H38.59V14.676c0-3.089-2.522-5.601-5.622-5.601h-.07V1.064a1.07 1.07 0 0 0-1.432-1l-2.768 1.002L25.931.064a1.072 1.072 0 0 0-.73 0l-2.766 1.002L19.668.064a1.072 1.072 0 0 0-.73 0l-2.766 1.002L13.406.064a1.072 1.072 0 0 0-.73 0L9.91 1.066 7.143.064a1.071 1.071 0 0 0-.977.128c-.285.2-.455.525-.455.871v8.012H5.64c-3.1 0-5.622 2.512-5.622 5.6v47.643c0 3.089 2.522 5.601 5.622 5.601h27.327a5.625 5.625 0 0 0 5.52-4.537h11.56a2.204 2.204 0 0 0 2.206-2.198V31.69c0-1.212-.99-2.198-2.206-2.198z" mask="url(#b)"/>
        </g>
        <path fill="#000" d="M19.01 42.766h-1.02c-.596 0-1.081-.568-1.081-1.266 0-.698.485-1.266 1.082-1.266h1.018c.597 0 1.082.568 1.082 1.266 0 .698-.485 1.266-1.082 1.266m0-4.766h-1.018C16.34 38 15 39.57 15 41.5s1.342 3.5 2.99 3.5h1.02c1.648 0 2.99-1.57 2.99-3.5S20.658 38 19.01 38M19.01 52.766h-1.02c-.596 0-1.081-.568-1.081-1.266 0-.698.485-1.266 1.082-1.266h1.018c.597 0 1.082.568 1.082 1.266 0 .698-.485 1.266-1.082 1.266m0-4.766h-1.018C16.34 48 15 49.57 15 51.5s1.342 3.5 2.99 3.5h1.02c1.648 0 2.99-1.57 2.99-3.5S20.658 48 19.01 48M19.01 61.766h-1.02c-.596 0-1.081-.568-1.081-1.266 0-.698.485-1.266 1.082-1.266h1.018c.597 0 1.082.568 1.082 1.266 0 .698-.485 1.266-1.082 1.266m0-4.766h-1.018C16.34 57 15 58.57 15 60.5s1.342 3.5 2.99 3.5h1.02c1.648 0 2.99-1.57 2.99-3.5S20.658 57 19.01 57M29.01 42.766h-1.02c-.596 0-1.081-.568-1.081-1.266 0-.698.485-1.266 1.082-1.266h1.018c.597 0 1.082.568 1.082 1.266 0 .698-.485 1.266-1.082 1.266m0-4.766h-1.018C26.34 38 25 39.57 25 41.5s1.342 3.5 2.99 3.5h1.02c1.648 0 2.99-1.57 2.99-3.5S30.658 38 29.01 38M29.01 52.766h-1.02c-.596 0-1.081-.568-1.081-1.266 0-.698.485-1.266 1.082-1.266h1.018c.597 0 1.082.568 1.082 1.266 0 .698-.485 1.266-1.082 1.266m0-4.766h-1.018C26.34 48 25 49.57 25 51.5s1.342 3.5 2.99 3.5h1.02c1.648 0 2.99-1.57 2.99-3.5S30.658 48 29.01 48M29.01 61.766h-1.02c-.596 0-1.081-.568-1.081-1.266 0-.698.485-1.266 1.082-1.266h1.018c.597 0 1.082.568 1.082 1.266 0 .698-.485 1.266-1.082 1.266m0-4.766h-1.018C26.34 57 25 58.57 25 60.5s1.342 3.5 2.99 3.5h1.02c1.648 0 2.99-1.57 2.99-3.5S30.658 57 29.01 57M9.01 42.766H7.99c-.596 0-1.081-.568-1.081-1.266 0-.698.485-1.266 1.082-1.266h1.018c.597 0 1.082.568 1.082 1.266 0 .698-.485 1.266-1.082 1.266m0-4.766H7.991C6.34 38 5 39.57 5 41.5S6.342 45 7.99 45h1.02c1.648 0 2.99-1.57 2.99-3.5S10.658 38 9.01 38M9.01 52.766H7.99c-.596 0-1.081-.568-1.081-1.266 0-.698.485-1.266 1.082-1.266h1.018c.597 0 1.082.568 1.082 1.266 0 .698-.485 1.266-1.082 1.266m0-4.766H7.991C6.34 48 5 49.57 5 51.5S6.342 55 7.99 55h1.02c1.648 0 2.99-1.57 2.99-3.5S10.658 48 9.01 48M9.01 61.766H7.99c-.596 0-1.081-.568-1.081-1.266 0-.698.485-1.266 1.082-1.266h1.018c.597 0 1.082.568 1.082 1.266 0 .698-.485 1.266-1.082 1.266m0-4.766H7.991C6.34 57 5 58.57 5 60.5S6.342 64 7.99 64h1.02c1.648 0 2.99-1.57 2.99-3.5S10.658 57 9.01 57M31.899 33.743c0 .04-.032.072-.07.072H7.172a.071.071 0 0 1-.07-.072V23.257c0-.04.031-.072.07-.072h24.657c.038 0 .07.032.07.072v10.486zM31.829 21H7.172C5.974 21 5 22.013 5 23.257v10.486C5 34.987 5.974 36 7.172 36h24.657C33.026 36 34 34.987 34 33.743V23.257C34 22.013 33.026 21 31.829 21z"/>
    </g>
</svg>
