<svg xmlns="http://www.w3.org/2000/svg" width="60" height="60" viewBox="0 0 60 60">
    <g fill="#000" fill-rule="evenodd">
        <path d="M8.367 34.925c-.663 0-1.203-.602-1.203-1.343 0-.74.54-1.343 1.203-1.343h7.446c.663 0 1.202.602 1.202 1.343 0 .74-.54 1.343-1.202 1.343H8.367zM8.367 46.567c-.663 0-1.203-.602-1.203-1.343 0-.74.54-1.343 1.203-1.343h7.446c.663 0 1.202.602 1.202 1.343 0 .74-.54 1.343-1.202 1.343H8.367zM45.083 45.672c-.663 0-1.202-.54-1.202-1.203v-7.446c0-.663.539-1.202 1.202-1.202.663 0 1.202.54 1.202 1.202v6.244h6.244c.663 0 1.202.54 1.202 1.202 0 .663-.539 1.203-1.202 1.203h-7.446z"/>
        <path d="M11.93 2.319c-1.34 0-2.43 1.09-2.43 2.43v7.18c0 1.341 1.09 2.431 2.43 2.431s2.43-1.09 2.43-2.43V4.75c0-1.34-1.09-2.431-2.43-2.431zm18.19 0c-1.34 0-2.43 1.09-2.43 2.43v7.18c0 1.341 1.09 2.431 2.43 2.431s2.43-1.09 2.43-2.43V4.75c0-1.34-1.09-2.431-2.43-2.431zm17.95 0c-1.34 0-2.43 1.09-2.43 2.43v7.18c0 1.341 1.09 2.431 2.43 2.431s2.43-1.09 2.43-2.43V4.75c0-1.34-1.09-2.431-2.43-2.431zM4.75 9.499c-1.34 0-2.431 1.09-2.431 2.43v9.851h55.362v-9.85c0-1.34-1.09-2.43-2.43-2.43H52.82v2.43c0 2.619-2.13 4.75-4.75 4.75a4.755 4.755 0 0 1-4.75-4.75V9.5h-8.45v2.43c0 2.619-2.131 4.75-4.75 4.75a4.755 4.755 0 0 1-4.75-4.75V9.5h-8.69v2.43c0 2.619-2.131 4.75-4.75 4.75a4.755 4.755 0 0 1-4.75-4.75V9.5H4.75zM2.319 51.66c0 1.34 1.09 2.43 2.43 2.43h27.496l-.663-.989a15.506 15.506 0 0 1-2.525-6.896l-.063-.565H26.53a1.16 1.16 0 0 1 0-2.319h2.464l.063-.566a15.53 15.53 0 0 1 2.525-6.908l.663-.99H26.53c-.64 0-1.16-.514-1.16-1.147 0-.64.52-1.16 1.16-1.16h7.18c.116 0 .231.018.342.052l.327.1.264-.216a15.534 15.534 0 0 1 9.837-3.526c4.702 0 9.102 2.106 12.071 5.778l1.13 1.397V24.099H2.32V51.66zM44.48 31.28c-7.279 0-13.2 5.921-13.2 13.2 0 7.28 5.921 13.201 13.2 13.201 7.28 0 13.201-5.922 13.201-13.2 0-7.28-5.922-13.202-13.2-13.202zm0 28.72a15.544 15.544 0 0 1-9.742-3.449l-.175-.141H4.75A4.755 4.755 0 0 1 0 51.66V11.93c0-2.62 2.13-4.75 4.75-4.75h2.43V4.75C7.18 2.13 9.31 0 11.93 0c2.619 0 4.75 2.13 4.75 4.75v2.43h8.69V4.75C25.37 2.13 27.5 0 30.12 0c2.619 0 4.75 2.13 4.75 4.75v2.43h8.45V4.75c0-2.62 2.131-4.75 4.75-4.75 2.62 0 4.75 2.13 4.75 4.75v2.43h2.43c2.62 0 4.75 2.13 4.75 4.75v32.55C60 53.038 53.038 60 44.48 60z"/>
    </g>
</svg>
