<svg xmlns="http://www.w3.org/2000/svg" width="23" height="16" viewBox="0 0 23 16">
    <path fill="#000" fill-rule="nonzero" d="M21.527 1.373C20.718.398 19.225 0 16.374 0H6.025C3.11 0 1.591.424.785 1.462 0 2.475 0 3.967 0 6.032v3.936C0 13.968.932 16 6.025 16h10.35c2.472 0 3.842-.351 4.728-1.212.91-.883 1.297-2.324 1.297-4.82V6.032c0-2.178-.06-3.679-.873-4.659zm-7.146 7.17l-4.7 2.493a.713.713 0 0 1-.709-.022.736.736 0 0 1-.348-.628v-4.97c0-.256.132-.493.347-.626a.713.713 0 0 1 .709-.024l4.7 2.477c.238.126.388.376.389.65 0 .273-.15.524-.388.65z"/>
</svg>
